<svg version="1.2" xmlns="http://www.w3.org/2000/svg" viewBox="0 0 1024 1024" width="512" height="512">
	<style>
		.s0 { opacity: 1;fill: #31fb93 } 
		.s1 { opacity: .99;fill: #31fb93 } 
		.s2 { opacity: 1;fill: #1ff790 } 
		.s3 { opacity: 1;fill: #000000 } 
	</style>
	<g id="Background">
		<path id="Path 0" class="s0" d="m160 484l2-21 9-29 10-20 16-22 39-33 42-18 43-7 405 2 37 10 37 21 31 31 20 33 12 40 1 46-9 39-21 38-28 31-13 10-30 17-22 7-4 2-27 5-53 1h-117-115-89l-40-4-8-2-39-15-37-27-24-27-16-30 3 2v-4l-6-20-3 6-6-32v-3l-1-24z"/>
		<path id="Path 4" class="s1" d="m166 546l3-6 6 20v4l-3-2z"/>
		<path id="Path 5" class="s2" d="m370 356h322l45 5 21 7 20 11 29 24 17 22 10 20 8 27v52l-5 20-9 17-34 40-25 17-28 12-26 6-60 1-11 3h-29l-13-4h-38l-22 4-41-4-57 4-24-2-88 2-40-5-20-6-24-12-5-6-18-10-30-27-7-14-8-38v-40l8-38 13-26 17-19 11-10 28-16 39-13z"/>
		<path id="Path 7" class="s3" d="m324 476v-24h27l14 22 28 42 8 11-1-14 1-49v-12h25v8 112l-25-1-49-74-2 75h-26v-24zm123-16v-8h77v8 12l-51 1v25h48v21h-47l-1 32h56v21h-82zm90-1l-1-7h28l3 12 16 67 2-4 2 1 17-70 2-6h26l4 17 15 61 2 2 16-68 3-12h27l-12 48-18 72-31-1-8-39-10-36-3-2-20 78h-29z"/>
	</g>
</svg>